<?xml version="1.0" encoding="utf-8"?>
<!-- Generator: Adobe Illustrator 27.5.0, SVG Export Plug-In . SVG Version: 6.00 Build 0)  -->
<svg version="1.1" id="Layer_1" xmlns="http://www.w3.org/2000/svg" xmlns:xlink="http://www.w3.org/1999/xlink" x="0px" y="0px"
	 viewBox="0 0 4000 4000" style="enable-background:new 0 0 4000 4000;" xml:space="preserve">
<g>
	<defs>
		<rect id="SVGID_1_" width="4000" height="4000"/>
	</defs>
	<clipPath id="SVGID_00000168795768788804879310000015137618206804278700_">
		<use xlink:href="#SVGID_1_"  style="overflow:visible;"/>
	</clipPath>
	
		<rect x="21.692" y="21.692" style="clip-path:url(#SVGID_00000168795768788804879310000015137618206804278700_);fill-rule:evenodd;clip-rule:evenodd;fill:#FFFFFF;" width="3956.616" height="3956.616"/>
	
		<path style="clip-path:url(#SVGID_00000168795768788804879310000015137618206804278700_);fill-rule:evenodd;clip-rule:evenodd;" d="
		M2618.016,2973.202v-58.538h43.338v9.894h-31.481v13h29.273v9.892h-29.273v15.865h32.625v9.887H2618.016z M2518.467,2973.202
		v-58.538h11.473l24.097,39.23v-39.23h10.95v58.538h-11.842l-23.722-38.479v38.479H2518.467z M2454.838,2973.202v-58.538h11.855
		v58.538H2454.838z M2365.125,2973.202v-58.052h11.854v48.165h29.356v9.887H2365.125z M2287.914,2951.699v-9.887h25.436v23.354
		c-2.471,2.416-6.056,4.525-10.759,6.364c-4.685,1.826-9.438,2.735-14.26,2.735c-6.124,0-11.456-1.278-15.998-3.855
		c-4.544-2.577-7.963-6.264-10.252-11.056c-2.286-4.776-3.436-9.998-3.436-15.622c0-6.106,1.284-11.529,3.831-16.289
		c2.564-4.742,6.295-8.388,11.215-10.928c3.757-1.948,8.423-2.92,14.013-2.92c7.256,0,12.943,1.531,17.032,4.588
		c4.072,3.061,6.703,7.273,7.877,12.672l-11.774,2.202c-0.818-2.878-2.373-5.147-4.649-6.826c-2.263-1.659-5.098-2.49-8.503-2.49
		c-5.154,0-9.256,1.629-12.293,4.92c-3.037,3.284-4.562,8.148-4.562,14.597c0,6.961,1.538,12.176,4.618,15.655
		c3.093,3.475,7.126,5.221,12.13,5.221c2.46,0,4.944-0.499,7.423-1.458c2.49-0.972,4.618-2.158,6.408-3.549v-7.427H2287.914z
		 M2192.205,2949.983l-8.135-21.668l-7.907,21.668H2192.205z M2213.875,2973.202h-12.772l-5.048-13.325h-23.484l-4.864,13.325
		h-12.538l22.727-58.538h12.525L2213.875,2973.202z M2089.919,2973.202v-48.644h-17.334v-9.894h46.442v9.894h-17.254v48.644
		H2089.919z M1958.99,2973.202v-58.538h43.336v9.894h-31.481v13h29.275v9.892h-29.275v15.865h32.627v9.887H1958.99z
		 M1850.209,2973.202v-58.538h17.764l10.49,39.926l10.373-39.926h17.796v58.538h-10.959l-0.041-46.087l-11.542,46.087h-11.388
		l-11.492-46.087l-0.044,46.087H1850.209z M1756.001,2943.896c0,6.635,1.538,11.664,4.601,15.095
		c3.067,3.418,6.965,5.141,11.688,5.141c4.722,0,8.59-1.709,11.635-5.097c3.024-3.406,4.531-8.503,4.531-15.304
		c0-6.716-1.471-11.733-4.421-15.028c-2.946-3.321-6.857-4.963-11.746-4.963c-4.881,0-8.822,1.672-11.805,5.017
		C1757.502,2932.109,1756.001,2937.146,1756.001,2943.896z M1743.821,2944.289c0-5.97,0.892-10.987,2.681-15.046
		c1.321-2.982,3.147-5.668,5.453-8.043c2.299-2.367,4.822-4.126,7.564-5.282c3.653-1.542,7.863-2.323,12.629-2.323
		c8.64,0,15.534,2.694,20.729,8.048c5.171,5.369,7.766,12.822,7.766,22.377c0,9.469-2.577,16.879-7.712,22.215
		c-5.139,5.362-12.019,8.03-20.616,8.03c-8.714,0-15.649-2.655-20.783-7.987C1746.392,2960.966,1743.821,2953.636,1743.821,2944.289
		z M1648.125,2954.239l11.525-1.15c0.694,3.861,2.085,6.677,4.199,8.492c2.108,1.814,4.961,2.712,8.547,2.712
		c3.781,0,6.646-0.807,8.564-2.412c1.926-1.61,2.891-3.486,2.891-5.644c0-1.388-0.406-2.558-1.213-3.542
		c-0.805-0.969-2.226-1.807-4.237-2.521c-1.377-0.492-4.512-1.334-9.414-2.564c-6.314-1.573-10.742-3.516-13.286-5.816
		c-3.586-3.23-5.375-7.171-5.375-11.813c0-2.987,0.844-5.792,2.521-8.393c1.692-2.601,4.122-4.588,7.293-5.946
		c3.174-1.364,6.991-2.048,11.486-2.048c7.319,0,12.833,1.629,16.529,4.883c3.714,3.258,5.644,7.588,5.835,13.028l-11.855,0.406
		c-0.51-3.024-1.581-5.189-3.234-6.512c-1.642-1.321-4.126-1.991-7.423-1.991c-3.406,0-6.074,0.714-7.998,2.128
		c-1.243,0.916-1.87,2.128-1.87,3.653c0,1.388,0.583,2.575,1.759,3.56c1.488,1.267,5.096,2.571,10.833,3.935
		c5.738,1.347,9.98,2.768,12.716,4.213c2.755,1.458,4.907,3.429,6.458,5.952c1.555,2.527,2.33,5.625,2.33,9.321
		c0,3.352-0.928,6.506-2.792,9.427c-1.87,2.933-4.495,5.115-7.907,6.529c-3.408,1.432-7.655,2.139-12.742,2.139
		c-7.397,0-13.078-1.703-17.05-5.121C1651.255,2965.738,1648.901,2960.762,1648.125,2954.239z M1556.181,2973.202v-58.538h43.338
		v9.894h-31.484v13h29.276v9.892h-29.276v15.865h32.627v9.887H1556.181z M1446.539,2973.202l-13.761-58.538h12.189l8.707,40.215
		l10.686-40.215h14.087l10.221,40.896l8.915-40.896h11.898l-14.113,58.538h-12.66l-11.536-43.761l-11.627,43.761H1446.539z
		 M1374.531,2949.983l-8.134-21.668l-7.909,21.668H1374.531z M1396.199,2973.202h-12.77l-5.05-13.325h-23.488l-4.863,13.325h-12.538
		l22.733-58.538h12.525L1396.199,2973.202z"/>
	
		<path style="clip-path:url(#SVGID_00000168795768788804879310000015137618206804278700_);fill-rule:evenodd;clip-rule:evenodd;" d="
		M2995.443,2786.085v-75.644c0-18.618,11.744-34.95,30.657-34.95c18.909,0,26.651,15.753,26.651,34.377v76.217h34.95v-76.217
		c0-42.401-19.763-67.041-59.878-67.041c-18.343,0-34.668,5.731-47.28,25.79c-8.024-19.486-24.92-26.36-41.831-26.36
		c-13.471,0-29.796,5.158-37.249,19.479l-2.577-17.193h-32.38v141.542h34.957v-75.644c0-18.618,11.18-35.523,30.086-35.523
		c19.197,0,28.937,16.905,28.937,35.523v75.644H2995.443z M2644.979,2644.832v74.213c0,43.829,24.64,69.334,58.453,69.334
		c19.768,0,33.241-6.881,47.85-21.202l2.286,18.909h31.23v-141.254h-34.666v72.061c0,21.631-14.609,39.679-36.102,39.679
		c-22.345,0-34.095-16.325-34.095-37.815v-73.924H2644.979z M2564.417,2659.448c-16.325-14.332-32.946-18.625-55.009-18.625
		c-25.787,0-59.594,11.462-59.594,44.119c0,32.091,31.803,41.837,58.445,43.842c20.059,1.143,28.083,5.158,28.083,14.898
		c0,10.312-12.323,17.193-25.499,16.904c-15.761-0.291-38.683-8.596-48.711-19.763l-17.187,24.922
		c20.623,21.49,42.974,25.21,65.325,25.21c40.399,0,60.74-21.49,60.74-46.418c0-37.532-33.807-43.547-60.451-45.263
		c-18.052-1.149-26.367-6.308-26.367-15.475c0-8.881,9.169-14.039,25.79-14.039c13.471,0,24.926,3.147,34.957,12.605
		L2564.417,2659.448z M2257.791,2845.109v-75.644c10.035,15.477,32.095,20.063,46.989,20.063c45.269,0,71.345-32.668,71.345-73.922
		c0-41.549-28.941-73.928-72.488-73.928c-16.043,0-34.95,6.881-45.846,22.64l-2.289-19.486h-32.668v200.278H2257.791z
		 M2301.053,2755.717c-23.777,0-40.108-18.048-40.108-40.111c0-22.063,14.898-40.115,40.108-40.115
		c25.217,0,40.115,18.052,40.115,40.115C2341.168,2737.669,2324.843,2755.717,2301.053,2755.717z M2139.129,2786.085v-200.854
		h-37.54v200.854H2139.129z M1862.305,2786.085v-75.644c0-18.618,11.744-34.95,30.653-34.95c18.913,0,26.655,15.753,26.655,34.377
		v76.217h34.944v-76.217c0-42.401-19.764-67.041-59.872-67.041c-18.349,0-34.673,5.731-47.28,25.79
		c-8.024-19.486-24.926-26.36-41.835-26.36c-13.466,0-29.792,5.158-37.245,19.479l-2.577-17.193h-32.38v141.542h34.956v-75.644
		c0-18.618,11.178-35.523,30.08-35.523c19.197,0,28.943,16.905,28.943,35.523v75.644H1862.305z M1548.808,2698.986
		c5.154-18.336,20.625-27.503,39.538-27.503c20.052,0,34.38,9.167,36.672,27.503H1548.808z M1658.537,2727.929
		c5.453-58.169-24.061-87.395-71.341-87.395c-45.839,0-75.072,30.948-75.072,73.922c0,45.269,28.941,75.356,77.649,75.356
		c21.497,0,45.846-7.453,60.744-22.924l-22.351-22.063c-8.017,8.314-24.926,13.185-37.822,13.185
		c-24.638,0-39.82-12.612-42.113-30.08H1658.537z M1343.318,2644.832v141.254h34.957v-74.494c0-26.072,16.909-35.818,35.245-35.818
		c11.456,0,18.048,3.156,25.217,9.169l15.755-30.371c-7.735-7.729-21.774-13.46-36.391-13.46c-14.327,0-28.937,2.577-39.826,20.052
		l-2.577-16.332H1343.318z M1194.86,2673.769c23.488,0,38.393,20.629,38.393,41.837c0,21.49-12.894,41.542-38.393,41.542
		c-25.508,0-38.401-20.052-38.401-41.542C1156.459,2694.398,1169.644,2673.769,1194.86,2673.769z M1194.57,2641.966
		c-44.985,0-73.067,33.243-73.067,73.64c0,40.688,27.516,73.633,73.358,73.633c45.839,0,73.631-32.946,73.631-73.633
		C1268.492,2675.209,1239.557,2641.966,1194.57,2641.966z M912.299,2585.231v200.854h140.97v-34.957H950.121v-165.898H912.299z"/>
	<g style="clip-path:url(#SVGID_00000168795768788804879310000015137618206804278700_);">
		<defs>
			<path id="SVGID_00000116203110878438602570000006163371353651611573_" d="M2234.276,1414.713
				c-58.403-218.028-242.857-368.631-453.937-394.438c21.158,34.434,37.755,72.471,48.748,113.49
				c48.852,182.301-27.72,368.651-176.831,467.444c-8.147,5.393-16.49,10.527-25.043,15.38
				c-129.969,86.108-204.82,238.718-189.57,397.199c120.727,72.835,269.763,98.351,416.716,58.981
				c29.46-7.896,57.709-18.102,84.586-30.362c9.13-4.913,18.471-9.525,28.039-13.805
				c119.523-63.204,208.664-168.469,253.438-291.581C2256.793,1637.034,2263.908,1525.277,2234.276,1414.713"/>
		</defs>
		<clipPath id="SVGID_00000042720637849563901340000008858694659878077317_">
			<use xlink:href="#SVGID_00000116203110878438602570000006163371353651611573_"  style="overflow:visible;"/>
		</clipPath>
		
			<linearGradient id="SVGID_00000107555127032377912730000011450348970585616000_" gradientUnits="userSpaceOnUse" x1="1848.8075" y1="1666.0502" x2="1807.1584" y2="930.9095">
			<stop  offset="0" style="stop-color:#003780"/>
			<stop  offset="1" style="stop-color:#29C5FF"/>
		</linearGradient>
		
			<rect x="1422.394" y="1020.275" style="clip-path:url(#SVGID_00000042720637849563901340000008858694659878077317_);fill:url(#SVGID_00000107555127032377912730000011450348970585616000_);" width="841.514" height="1091.865"/>
	</g>
	<g style="clip-path:url(#SVGID_00000168795768788804879310000015137618206804278700_);">
		<defs>
			<path id="SVGID_00000179616432452070158450000006573030711535396490_" d="M1860.559,2058.917
				c-146.948,39.371-295.985,13.853-416.711-58.987c2.256,23.354,6.455,46.831,12.729,70.245
				c37.447,139.74,139.898,244.689,266.106,291.039c79.928,29.356,169.377,35.191,257.872,11.482
				c36.505-9.783,70.644-24.007,101.974-41.937c13.681-10.188,28.056-19.633,43.067-28.21
				c31.321-17.931,65.467-32.147,101.978-41.928c119.64-32.054,241.026-10.098,338.258,50.937
				c-1.28-5.718-2.688-11.432-4.219-17.143c-37.44-139.74-139.894-244.69-266.106-291.035
				c-79.922-29.349-169.377-35.195-257.865-11.486c-22.425,6.006-43.946,13.681-64.46,22.861
				c-9.161,4.859-18.527,9.458-28.039,13.792C1918.272,2040.812,1890.023,2051.014,1860.559,2058.917"/>
		</defs>
		<clipPath id="SVGID_00000108987429456188031720000012458109683599585429_">
			<use xlink:href="#SVGID_00000179616432452070158450000006573030711535396490_"  style="overflow:visible;"/>
		</clipPath>
		
			<linearGradient id="SVGID_00000029009271334448823920000009286619090137594035_" gradientUnits="userSpaceOnUse" x1="2177.2017" y1="2090.4443" x2="2599.3274" y2="1865.4987">
			<stop  offset="0" style="stop-color:#261362"/>
			<stop  offset="1" style="stop-color:#F900B7"/>
		</linearGradient>
		
			<rect x="1443.847" y="1968.183" style="clip-path:url(#SVGID_00000108987429456188031720000012458109683599585429_);fill:url(#SVGID_00000029009271334448823920000009286619090137594035_);" width="1121.984" height="428.221"/>
	</g>
	<g style="clip-path:url(#SVGID_00000168795768788804879310000015137618206804278700_);">
		<defs>
			<path id="SVGID_00000040561830730943165870000007744084784175753606_" d="M2364.608,1515.439
				c0-225.709-139.18-418.913-336.388-498.475c11.516,38.733,17.709,79.77,17.709,122.241
				c0,188.729-122.191,348.913-291.796,405.742c-9.249,3.106-18.644,5.898-28.176,8.369
				c-147.801,49.549-259.605,177.588-285.898,334.605c97.761,101.599,235.128,164.829,387.251,164.829
				c30.505,0,60.425-2.547,89.557-7.436c10.085-2.38,20.31-4.414,30.653-6.074c131.82-30.124,245.163-108.731,320.284-216.054
				C2328.81,1736.012,2364.608,1629.902,2364.608,1515.439"/>
		</defs>
		<clipPath id="SVGID_00000160190579330535872470000016109237901513276042_">
			<use xlink:href="#SVGID_00000040561830730943165870000007744084784175753606_"  style="overflow:visible;"/>
		</clipPath>
		
			<linearGradient id="SVGID_00000016039149757412581580000015741604723922642622_" gradientUnits="userSpaceOnUse" x1="1305.3298" y1="2260.6643" x2="2258.4741" y2="1101.88">
			<stop  offset="0" style="stop-color:#045304"/>
			<stop  offset="1" style="stop-color:#B0F122"/>
		</linearGradient>
		
			<rect x="1440.06" y="1016.965" style="clip-path:url(#SVGID_00000160190579330535872470000016109237901513276042_);fill:url(#SVGID_00000016039149757412581580000015741604723922642622_);" width="924.548" height="1035.785"/>
	</g>
	<g style="clip-path:url(#SVGID_00000168795768788804879310000015137618206804278700_);">
		<defs>
			<path id="SVGID_00000124877913824628562610000007920834050715047306_" d="M1827.311,2052.75
				c-152.124,0-289.49-63.23-387.251-164.829c-3.868,23.132-5.892,46.905-5.892,71.15c0,144.664,71.807,272.568,181.718,349.989
				c69.601,49.03,154.505,77.833,246.104,77.833c37.811,0,74.471-4.896,109.371-14.106c15.863-6.308,32.178-11.707,48.889-16.115
				c34.913-9.206,71.568-14.106,109.365-14.106c123.852,0,235.423,52.633,313.546,136.757c0.245-5.852,0.362-11.738,0.362-17.64
				c0-144.672-71.8-272.574-181.718-350.002c-69.595-49.032-154.492-77.846-246.111-77.839c-23.199,0-45.963,1.85-68.173,5.399
				c-10.109,2.317-20.315,4.34-30.653,6.074C1887.736,2050.203,1857.817,2052.75,1827.311,2052.75"/>
		</defs>
		<clipPath id="SVGID_00000029004776910561035080000012796075114715841932_">
			<use xlink:href="#SVGID_00000124877913824628562610000007920834050715047306_"  style="overflow:visible;"/>
		</clipPath>
		
			<linearGradient id="SVGID_00000061454125210510257820000008495838305138409616_" gradientUnits="userSpaceOnUse" x1="1535.9353" y1="1975.6708" x2="2457.6267" y2="2451.375">
			<stop  offset="0" style="stop-color:#E60C84"/>
			<stop  offset="1" style="stop-color:#FFCF4B"/>
		</linearGradient>
		
			<rect x="1434.168" y="1887.921" style="clip-path:url(#SVGID_00000029004776910561035080000012796075114715841932_);fill:url(#SVGID_00000061454125210510257820000008495838305138409616_);" width="1009.355" height="591.401"/>
	</g>
	<defs>
		<filter id="Adobe_OpacityMaskFilter" filterUnits="userSpaceOnUse" x="1434.168" y="1887.921" width="501.56" height="498.971">
			<feColorMatrix  type="matrix" values="1 0 0 0 0  0 1 0 0 0  0 0 1 0 0  0 0 0 1 0"/>
		</filter>
	</defs>
	
		<mask maskUnits="userSpaceOnUse" x="1434.168" y="1887.921" width="501.56" height="498.971" id="SVGID_00000176012622485321326030000018289186129567209894_">
		<g style="filter:url(#Adobe_OpacityMaskFilter);">
			
				<linearGradient id="SVGID_00000028320067242143263420000009360697570622491525_" gradientUnits="userSpaceOnUse" x1="538.7508" y1="1436.5353" x2="1922.0492" y2="2427.2083" gradientTransform="matrix(1 0 0 1 65.1152 -73.3643)">
				<stop  offset="0" style="stop-color:#FFFFFF"/>
				<stop  offset="1" style="stop-color:#000000"/>
			</linearGradient>
			
				<rect x="1434.168" y="1887.921" style="clip-path:url(#SVGID_00000168795768788804879310000015137618206804278700_);fill:url(#SVGID_00000028320067242143263420000009360697570622491525_);" width="501.56" height="498.971"/>
		</g>
	</mask>
	
		<path style="clip-path:url(#SVGID_00000168795768788804879310000015137618206804278700_);mask:url(#SVGID_00000176012622485321326030000018289186129567209894_);fill-rule:evenodd;clip-rule:evenodd;fill:#8A0028;" d="
		M1827.311,2052.75c-152.124,0-289.49-63.23-387.251-164.829c-3.868,23.132-5.892,46.905-5.892,71.15
		c0,144.664,71.807,272.568,181.718,349.989c69.601,49.03,154.505,77.833,246.104,77.833
		c-428.013-198.703-38.529-316.932,73.737-345.095c-6.247,1.284-12.531,2.453-18.859,3.516
		C1887.736,2050.203,1857.817,2052.75,1827.311,2052.75"/>
	<defs>
		
			<filter id="Adobe_OpacityMaskFilter_00000091697798686349290010000003513035166318713985_" filterUnits="userSpaceOnUse" x="1559.101" y="1016.965" width="805.507" height="681.668">
			<feColorMatrix  type="matrix" values="1 0 0 0 0  0 1 0 0 0  0 0 1 0 0  0 0 0 1 0"/>
		</filter>
	</defs>
	
		<mask maskUnits="userSpaceOnUse" x="1559.101" y="1016.965" width="805.507" height="681.668" id="SVGID_00000075157380837022934660000003632789386797075131_">
		<g style="filter:url(#Adobe_OpacityMaskFilter_00000091697798686349290010000003513035166318713985_);">
			
				<linearGradient id="SVGID_00000114784116237277935660000015229817883338787740_" gradientUnits="userSpaceOnUse" x1="2948.8645" y1="313.3171" x2="1509.816" y2="1877.0923" gradientTransform="matrix(1 0 0 1 70.8746 -105.0931)">
				<stop  offset="0" style="stop-color:#FFFFFF"/>
				<stop  offset="1" style="stop-color:#000000"/>
			</linearGradient>
			
				<rect x="1559.101" y="1016.965" style="clip-path:url(#SVGID_00000168795768788804879310000015137618206804278700_);fill:url(#SVGID_00000114784116237277935660000015229817883338787740_);" width="805.507" height="681.668"/>
		</g>
	</mask>
	
		<path style="clip-path:url(#SVGID_00000168795768788804879310000015137618206804278700_);mask:url(#SVGID_00000075157380837022934660000003632789386797075131_);fill-rule:evenodd;clip-rule:evenodd;fill:#ECF955;" d="
		M2332.561,1698.632c0,0-69.226-317-548.279-144.553c-66.777,24.041-141.542,57.597-225.18,102.84
		c46.334-46.43,103.26-82.278,166.857-103.603c9.531-2.471,18.926-5.262,28.176-8.369c10.236-3.425,20.291-7.226,30.148-11.388
		c153.742-64.863,261.648-217.006,261.648-394.354c0-42.471-6.193-83.508-17.709-122.241
		c197.208,79.562,336.388,272.766,336.388,498.475C2364.608,1579.776,2353.3,1641.468,2332.561,1698.632"/>
</g>
</svg>
